<svg width="10" height="6" viewBox="0 0 10 6" fill="none" xmlns="http://www.w3.org/2000/svg">
<path d="M5.00002 5.58333C4.91669 5.58333 4.8403 5.56944 4.77085 5.54167C4.70141 5.51389 4.63196 5.46528 4.56252 5.39583L0.437519 1.27083C0.312519 1.14583 0.253491 0.996528 0.260436 0.822917C0.26738 0.649306 0.333353 0.5 0.458353 0.375C0.583353 0.25 0.732658 0.1875 0.906269 0.1875C1.07988 0.1875 1.22919 0.25 1.35419 0.375L5.00002 4.04167L8.66669 0.375C8.79169 0.25 8.93752 0.190972 9.10419 0.197917C9.27085 0.204861 9.41669 0.270833 9.54169 0.395833C9.66669 0.520833 9.72919 0.670139 9.72919 0.84375C9.72919 1.01736 9.66669 1.16667 9.54169 1.29167L5.43752 5.39583C5.36807 5.46528 5.29863 5.51389 5.22919 5.54167C5.15974 5.56944 5.08335 5.58333 5.00002 5.58333Z" fill="white"/>
</svg>
