<svg width="99" height="30" viewBox="0 0 99 30" fill="none" xmlns="http://www.w3.org/2000/svg">
<path d="M51.5849 0.820558V28.4371C51.5849 28.89 51.3145 29.2576 50.9815 29.2576C50.6485 29.2576 50.3782 28.89 50.3782 28.4371V0.820558C50.3782 0.367691 50.6485 0 50.9815 0C51.3145 0 51.5849 0.367691 51.5849 0.820558Z" fill="#6785D3"/>
<path d="M54.5483 9.60934V19.6485C54.5483 19.8478 54.2779 20.0095 53.9449 20.0095C53.6119 20.0095 53.3416 19.8478 53.3416 19.6485V9.60934C53.3416 9.41008 53.6119 9.24829 53.9449 9.24829C54.2779 9.24829 54.5483 9.41008 54.5483 9.60934Z" fill="#6785D3"/>
<path d="M48.6217 5.45526V23.8027C48.6217 24.1424 48.3514 24.4181 48.0184 24.4181C47.6854 24.4181 47.415 24.1424 47.415 23.8027V5.45526C47.415 5.11561 47.6854 4.83984 48.0184 4.83984C48.3514 4.83984 48.6217 5.11561 48.6217 5.45526Z" fill="#6785D3"/>
<path d="M45.6581 10.1798V19.0777C45.6581 19.2815 45.3878 19.447 45.0548 19.447C44.7218 19.447 44.4514 19.2815 44.4514 19.0777V10.1798C44.4514 9.97601 44.7218 9.81055 45.0548 9.81055C45.3878 9.81055 45.6581 9.97601 45.6581 10.1798Z" fill="#6785D3"/>
<path d="M57.5119 8.73693V20.5208C57.5119 20.7246 57.2415 20.8901 56.9085 20.8901C56.5755 20.8901 56.3052 20.7246 56.3052 20.5208V8.73693C56.3052 8.53314 56.5755 8.36768 56.9085 8.36768C57.2415 8.36768 57.5119 8.53314 57.5119 8.73693Z" fill="#6785D3"/>
<path d="M60.4753 12.0922V17.1659C60.4753 17.415 60.2049 17.6172 59.8719 17.6172C59.5389 17.6172 59.2686 17.415 59.2686 17.1659V12.0922C59.2686 11.8431 59.5389 11.6409 59.8719 11.6409C60.2049 11.6409 60.4753 11.8431 60.4753 12.0922Z" fill="#6785D3"/>
<path d="M7.1337 12.0922V17.1659C7.1337 17.415 6.86334 17.6172 6.53035 17.6172C6.19736 17.6172 5.927 17.415 5.927 17.1659V12.0922C5.927 11.8431 6.19736 11.6409 6.53035 11.6409C6.86334 11.6409 7.1337 11.8431 7.1337 12.0922Z" fill="#6785D3"/>
<path d="M63.4386 5.08779V24.1691C63.4386 24.5224 63.1683 24.8092 62.8353 24.8092C62.5023 24.8092 62.2319 24.5224 62.2319 24.1691V5.08779C62.2319 4.73455 62.5023 4.44775 62.8353 4.44775C63.1683 4.44775 63.4386 4.73455 63.4386 5.08779Z" fill="#6785D3"/>
<path d="M66.402 9.00575V20.252C66.402 20.4196 66.1317 20.5556 65.7987 20.5556C65.4657 20.5556 65.1953 20.4196 65.1953 20.252V9.00575C65.1953 8.83819 65.4657 8.70215 65.7987 8.70215C66.1317 8.70215 66.402 8.83819 66.402 9.00575Z" fill="#6785D3"/>
<path d="M69.3656 11.8552V17.4021C69.3656 17.5289 69.0953 17.6318 68.7623 17.6318C68.4293 17.6318 68.1589 17.5289 68.1589 17.4021V11.8552C68.1589 11.7284 68.4293 11.6255 68.7623 11.6255C69.0953 11.6255 69.3656 11.7284 69.3656 11.8552Z" fill="#6785D3"/>
<path d="M72.329 14.2781V14.9796C72.329 15.0612 72.0587 15.1273 71.7257 15.1273C71.3927 15.1273 71.1223 15.0612 71.1223 14.9796V14.2781C71.1223 14.1966 71.3927 14.1304 71.7257 14.1304C72.0587 14.1304 72.329 14.1966 72.329 14.2781Z" fill="#6785D3"/>
<path d="M75.2924 13.2936V15.9647C75.2924 16.087 75.022 16.1863 74.689 16.1863C74.3561 16.1863 74.0857 16.087 74.0857 15.9647V13.2936C74.0857 13.1713 74.3561 13.072 74.689 13.072C75.022 13.072 75.2924 13.1713 75.2924 13.2936Z" fill="#6785D3"/>
<path d="M78.2558 13.7131V15.5449C78.2558 15.7578 77.9854 15.9306 77.6524 15.9306C77.3194 15.9306 77.0491 15.7578 77.0491 15.5449V13.7131C77.0491 13.5002 77.3194 13.3274 77.6524 13.3274C77.9854 13.3274 78.2558 13.5002 78.2558 13.7131Z" fill="#6785D3"/>
<path d="M84.1828 14.0443V15.2136C84.1828 15.3494 83.9124 15.4597 83.5794 15.4597C83.2464 15.4597 82.9761 15.3494 82.9761 15.2136V14.0443C82.9761 13.9084 83.2464 13.7981 83.5794 13.7981C83.9124 13.7981 84.1828 13.9084 84.1828 14.0443Z" fill="#6785D3"/>
<path d="M81.2192 12.6624V16.5954C81.2192 16.9396 80.9488 17.219 80.6158 17.219C80.2828 17.219 80.0125 16.9396 80.0125 16.5954V12.6624C80.0125 12.3183 80.2828 12.0388 80.6158 12.0388C80.9488 12.0388 81.2192 12.3183 81.2192 12.6624Z" fill="#6785D3"/>
<path d="M87.1462 11.1369V18.1207C87.1462 18.3788 86.8758 18.5884 86.5428 18.5884C86.2098 18.5884 85.9395 18.3788 85.9395 18.1207V11.1369C85.9395 10.8788 86.2098 10.6692 86.5428 10.6692C86.8758 10.6692 87.1462 10.8788 87.1462 11.1369Z" fill="#6785D3"/>
<path d="M90.1095 11.9997V17.2579C90.1095 17.5161 89.8392 17.7256 89.5062 17.7256C89.1732 17.7256 88.9028 17.5161 88.9028 17.2579V11.9997C88.9028 11.7416 89.1732 11.532 89.5062 11.532C89.8392 11.532 90.1095 11.7416 90.1095 11.9997Z" fill="#6785D3"/>
<path d="M93.0729 14.1633V15.0948C93.0729 15.1763 92.8026 15.2425 92.4696 15.2425C92.1366 15.2425 91.8662 15.1763 91.8662 15.0948V14.1633C91.8662 14.0818 92.1366 14.0156 92.4696 14.0156C92.8026 14.0156 93.0729 14.0818 93.0729 14.1633Z" fill="#6785D3"/>
<path d="M96.0363 10.0796V19.1782C96.0363 19.3865 95.7659 19.5556 95.4329 19.5556C95.1 19.5556 94.8296 19.3865 94.8296 19.1782V10.0796C94.8296 9.87129 95.1 9.70215 95.4329 9.70215C95.7659 9.70215 96.0363 9.87129 96.0363 10.0796Z" fill="#6785D3"/>
<path d="M98.9999 9.9159V19.3417C98.9999 19.4867 98.7296 19.6043 98.3966 19.6043C98.0636 19.6043 97.7932 19.4867 97.7932 19.3417V9.9159C97.7932 9.77098 98.0636 9.65332 98.3966 9.65332C98.7296 9.65332 98.9999 9.77098 98.9999 9.9159Z" fill="#6785D3"/>
<path d="M10.0968 9.00575V20.252C10.0968 20.4196 9.82648 20.5556 9.49349 20.5556C9.1605 20.5556 8.89014 20.4196 8.89014 20.252V9.00575C8.89014 8.83819 9.1605 8.70215 9.49349 8.70215C9.82648 8.70215 10.0968 8.83819 10.0968 9.00575Z" fill="#6785D3"/>
<path d="M13.0602 11.8552V17.4021C13.0602 17.5289 12.7899 17.6318 12.4569 17.6318C12.1239 17.6318 11.8535 17.5289 11.8535 17.4021V11.8552C11.8535 11.7284 12.1239 11.6255 12.4569 11.6255C12.7899 11.6255 13.0602 11.7284 13.0602 11.8552Z" fill="#6785D3"/>
<path d="M16.0238 14.2781V14.9796C16.0238 15.0612 15.7535 15.1273 15.4205 15.1273C15.0875 15.1273 14.8171 15.0612 14.8171 14.9796V14.2781C14.8171 14.1966 15.0875 14.1304 15.4205 14.1304C15.7535 14.1304 16.0238 14.1966 16.0238 14.2781Z" fill="#6785D3"/>
<path d="M18.9872 13.2936V15.9647C18.9872 16.087 18.7169 16.1863 18.3839 16.1863C18.0509 16.1863 17.7805 16.087 17.7805 15.9647V13.2936C17.7805 13.1713 18.0509 13.072 18.3839 13.072C18.7169 13.072 18.9872 13.1713 18.9872 13.2936Z" fill="#6785D3"/>
<path d="M21.9506 13.7131V15.5449C21.9506 15.7578 21.6802 15.9306 21.3472 15.9306C21.0143 15.9306 20.7439 15.7578 20.7439 15.5449V13.7131C20.7439 13.5002 21.0143 13.3274 21.3472 13.3274C21.6802 13.3274 21.9506 13.5002 21.9506 13.7131Z" fill="#6785D3"/>
<path d="M27.8776 14.0443V15.2136C27.8776 15.3494 27.6072 15.4597 27.2742 15.4597C26.9413 15.4597 26.6709 15.3494 26.6709 15.2136V14.0443C26.6709 13.9084 26.9413 13.7981 27.2742 13.7981C27.6072 13.7981 27.8776 13.9084 27.8776 14.0443Z" fill="#6785D3"/>
<path d="M24.914 12.6624V16.5954C24.914 16.9396 24.6436 17.219 24.3106 17.219C23.9776 17.219 23.7073 16.9396 23.7073 16.5954V12.6624C23.7073 12.3183 23.9776 12.0388 24.3106 12.0388C24.6436 12.0388 24.914 12.3183 24.914 12.6624Z" fill="#6785D3"/>
<path d="M1.2067 12.6624V16.5954C1.2067 16.9396 0.936341 17.219 0.603351 17.219C0.270362 17.219 0 16.9396 0 16.5954V12.6624C0 12.3183 0.270362 12.0388 0.603351 12.0388C0.936341 12.0388 1.2067 12.3183 1.2067 12.6624Z" fill="#6785D3"/>
<path d="M30.841 11.1369V18.1207C30.841 18.3788 30.5706 18.5884 30.2376 18.5884C29.9046 18.5884 29.6343 18.3788 29.6343 18.1207V11.1369C29.6343 10.8788 29.9046 10.6692 30.2376 10.6692C30.5706 10.6692 30.841 10.8788 30.841 11.1369Z" fill="#6785D3"/>
<path d="M33.8044 11.9997V17.2579C33.8044 17.5161 33.534 17.7256 33.201 17.7256C32.868 17.7256 32.5977 17.5161 32.5977 17.2579V11.9997C32.5977 11.7416 32.868 11.532 33.201 11.532C33.534 11.532 33.8044 11.7416 33.8044 11.9997Z" fill="#6785D3"/>
<path d="M36.7677 14.1633V15.0948C36.7677 15.1763 36.4974 15.2425 36.1644 15.2425C35.8314 15.2425 35.561 15.1763 35.561 15.0948V14.1633C35.561 14.0818 35.8314 14.0156 36.1644 14.0156C36.4974 14.0156 36.7677 14.0818 36.7677 14.1633Z" fill="#6785D3"/>
<path d="M4.17008 14.1633V15.0948C4.17008 15.1763 3.89972 15.2425 3.56673 15.2425C3.23374 15.2425 2.96338 15.1763 2.96338 15.0948V14.1633C2.96338 14.0818 3.23374 14.0156 3.56673 14.0156C3.89972 14.0156 4.17008 14.0818 4.17008 14.1633Z" fill="#6785D3"/>
<path d="M39.7311 10.0796V19.1782C39.7311 19.3865 39.4608 19.5556 39.1278 19.5556C38.7948 19.5556 38.5244 19.3865 38.5244 19.1782V10.0796C38.5244 9.87129 38.7948 9.70215 39.1278 9.70215C39.4608 9.70215 39.7311 9.87129 39.7311 10.0796Z" fill="#6785D3"/>
<path d="M42.6947 9.9159V19.3417C42.6947 19.4867 42.4244 19.6043 42.0914 19.6043C41.7584 19.6043 41.488 19.4867 41.488 19.3417V9.9159C41.488 9.77098 41.7584 9.65332 42.0914 9.65332C42.4244 9.65332 42.6947 9.77098 42.6947 9.9159Z" fill="#6785D3"/>
</svg>
