<svg width="22" height="22" viewBox="0 0 22 22" fill="none" xmlns="http://www.w3.org/2000/svg">
<path d="M11 21.75C5.072 21.75 0.25 16.928 0.25 11C0.25 5.072 5.072 0.25 11 0.25C16.928 0.25 21.75 5.072 21.75 11C21.75 16.928 16.928 21.75 11 21.75ZM11 1.75C5.9 1.75 1.75 5.9 1.75 11C1.75 16.1 5.9 20.25 11 20.25C16.1 20.25 20.25 16.1 20.25 11C20.25 5.9 16.1 1.75 11 1.75Z" fill="#C2D3FF"/>
<path d="M11 16.1148C9.10801 16.1148 7.36701 15.1648 6.34401 13.5708C6.12001 13.2228 6.22101 12.7608 6.57001 12.5358C6.91801 12.3098 7.38201 12.4118 7.60601 12.7618C8.35301 13.9238 9.62201 14.6168 11.001 14.6168C12.38 14.6168 13.649 13.9238 14.397 12.7628C14.621 12.4128 15.085 12.3128 15.433 12.5378C15.783 12.7618 15.883 13.2258 15.659 13.5738C14.634 15.1678 12.893 16.1188 11.001 16.1188L11 16.1148Z" fill="#C2D3FF"/>
<path d="M13.738 9.93598C14.5543 9.93598 15.216 9.27426 15.216 8.45798C15.216 7.6417 14.5543 6.97998 13.738 6.97998C12.9217 6.97998 12.26 7.6417 12.26 8.45798C12.26 9.27426 12.9217 9.93598 13.738 9.93598Z" fill="#C2D3FF"/>
<path d="M8.262 9.93598C9.07827 9.93598 9.74 9.27426 9.74 8.45798C9.74 7.6417 9.07827 6.97998 8.262 6.97998C7.44572 6.97998 6.784 7.6417 6.784 8.45798C6.784 9.27426 7.44572 9.93598 8.262 9.93598Z" fill="#C2D3FF"/>
</svg>
