<svg width="20" height="22" viewBox="0 0 20 22" fill="none" xmlns="http://www.w3.org/2000/svg">
<path d="M15.8146 2.47809C15.3073 2.50196 14.6534 2.58828 13.6978 2.7157L7.10586 3.59462C6.73411 3.64419 6.62192 3.66045 6.53472 3.68131C5.70842 3.87897 5.09718 4.57712 5.01046 5.4223C5.00131 5.51149 5.00001 5.62484 5.00001 5.99989C5.00001 6.55217 4.5523 6.99989 4.00001 6.99989C3.44773 6.99989 3.00001 6.55217 3.00001 5.99989L3.00001 5.94859C2.99994 5.64718 2.9999 5.42292 3.0209 5.21816C3.19434 3.5278 4.41682 2.13151 6.06943 1.73619C6.26961 1.6883 6.49191 1.65871 6.79068 1.61894L13.4774 0.727383C14.3783 0.607253 15.1175 0.508683 15.7206 0.480303C16.3436 0.450993 16.9236 0.489056 17.4779 0.709485C18.3304 1.04843 19.0404 1.67007 19.489 2.47022C19.7808 2.9906 19.8952 3.5605 19.9485 4.18182C20 4.78345 20 5.52919 20 6.43804V15.5617C20 16.4705 20 17.2163 19.9485 17.8179C19.8952 18.4393 19.7808 19.0092 19.489 19.5296C19.0404 20.3297 18.3304 20.9513 17.4779 21.2903C16.9236 21.5107 16.3436 21.5488 15.7206 21.5195C15.1175 21.4911 14.3783 21.3925 13.4774 21.2724L6.79052 20.3808C6.49196 20.3411 6.26953 20.3114 6.06943 20.2636C4.41682 19.8683 3.19434 18.472 3.02091 16.7816C2.9999 16.5769 2.99994 16.3526 3.00001 16.0512L3.00001 15.9999C3.00001 15.4476 3.44773 14.9999 4.00001 14.9999C4.5523 14.9999 5.00001 15.4476 5.00001 15.9999C5.00001 16.3749 5.00131 16.4883 5.01046 16.5775C5.09718 17.4226 5.70842 18.1208 6.53472 18.3185C6.62191 18.3393 6.73413 18.3556 7.10587 18.4052L13.6978 19.2841C14.6534 19.4115 15.3073 19.4978 15.8146 19.5217C16.312 19.5451 16.5652 19.5009 16.739 19.4318C17.1652 19.2623 17.5202 18.9515 17.7445 18.5514C17.836 18.3883 17.9132 18.1432 17.9558 17.6471C17.9992 17.1411 18 16.4815 18 15.5174V6.48237C18 5.51828 17.9992 4.8587 17.9558 4.35268C17.9132 3.8566 17.836 3.61148 17.7445 3.44833C17.5202 3.04825 17.1652 2.73743 16.739 2.56796C16.5652 2.49885 16.312 2.45469 15.8146 2.47809Z" fill="white" fill-opacity="0.5"/>
<path d="M9.29289 6.29277C9.68342 5.90225 10.3166 5.90225 10.7071 6.29277L14.7071 10.2928C15.0976 10.6833 15.0976 11.3165 14.7071 11.707L10.7071 15.707C10.3166 16.0975 9.68342 16.0975 9.29289 15.707C8.90237 15.3165 8.90237 14.6833 9.29289 14.2928L11.5858 11.9999H1C0.447715 11.9999 0 11.5522 0 10.9999C0 10.4476 0.447715 9.99988 1 9.99988H11.5858L9.29289 7.70698C8.90237 7.31646 8.90237 6.6833 9.29289 6.29277Z" fill="white" fill-opacity="0.5"/>
</svg>
