<svg width="200" height="33" viewBox="0 0 200 33" fill="none" xmlns="http://www.w3.org/2000/svg">
<path d="M0 1.80258H15.0847C17.3617 1.80258 19.335 2.04292 21.0048 2.52361C22.6745 2.99165 24.0597 3.67473 25.1602 4.57285C26.2607 5.47098 27.0766 6.56518 27.6079 7.85544C28.1518 9.14571 28.4238 10.6067 28.4238 12.2386C28.4238 13.3391 28.291 14.389 28.0253 15.3883C27.7597 16.375 27.3486 17.2858 26.792 18.1206C26.2481 18.9555 25.5587 19.7019 24.7238 20.3596C23.8889 21.0048 22.9086 21.5424 21.7827 21.9725L28.2341 31.4597H20.872L15.2935 23.035H15.1227L6.01492 23.0161V31.4597H0V1.80258ZM15.2365 17.8171C16.375 17.8171 17.368 17.6842 18.2155 17.4186C19.0757 17.1529 19.7904 16.7798 20.3596 16.2991C20.9415 15.8184 21.3716 15.2365 21.6499 14.5534C21.9409 13.8577 22.0863 13.0861 22.0863 12.2386C22.0863 10.5814 21.5171 9.30383 20.3786 8.4057C19.2402 7.49493 17.5261 7.03954 15.2365 7.03954H6.01492V17.8171H15.2365Z" fill="white"/>
<path d="M29.511 20.1889C29.511 18.6709 29.8209 17.2225 30.4408 15.8437C31.0606 14.4522 31.9524 13.2252 33.1162 12.1627C34.2799 11.1001 35.703 10.2526 37.3854 9.62007C39.0805 8.98759 41.0032 8.67135 43.1537 8.67135C45.2915 8.67135 47.2142 8.99391 48.9219 9.63905C50.6423 10.2715 52.097 11.1444 53.2861 12.2575C54.4878 13.3707 55.4049 14.6799 56.0374 16.1852C56.6825 17.6906 57.0051 19.3034 57.0051 21.0237C57.0051 21.2388 56.9988 21.4728 56.9861 21.7258C56.9861 21.9661 56.9735 22.1875 56.9482 22.3899H35.7726C36.013 23.0603 36.3988 23.6739 36.9301 24.2304C37.474 24.787 38.1507 25.2677 38.9603 25.6725C39.7699 26.0773 40.706 26.3935 41.7686 26.6212C42.8311 26.8363 44.0075 26.9438 45.2978 26.9438C46.5881 26.9438 47.872 26.811 49.1496 26.5453C50.4272 26.267 51.6479 25.9192 52.8117 25.5017L54.7092 29.79C53.9755 30.1315 53.2292 30.4351 52.4702 30.7007C51.7238 30.9537 50.9396 31.1688 50.1173 31.3459C49.3078 31.5103 48.4539 31.6368 47.5558 31.7254C46.6703 31.8139 45.7342 31.8582 44.7475 31.8582C42.2303 31.8582 40.0229 31.5546 38.1254 30.9474C36.228 30.3402 34.6405 29.5117 33.3628 28.4618C32.0852 27.4118 31.1239 26.1785 30.4787 24.7617C29.8336 23.345 29.511 21.8207 29.511 20.1889ZM51.0471 18.0068C50.8447 17.387 50.5285 16.8114 50.0984 16.2801C49.6809 15.7362 49.156 15.2681 48.5235 14.876C47.891 14.4712 47.1573 14.155 46.3224 13.9273C45.4876 13.6996 44.5705 13.5857 43.5711 13.5857C42.5086 13.5857 41.5409 13.7059 40.668 13.9463C39.7952 14.1866 39.0299 14.5092 38.3721 14.914C37.7143 15.3187 37.1641 15.7868 36.7213 16.3181C36.2912 16.8494 35.975 17.4123 35.7726 18.0068H51.0471Z" fill="white"/>
<path d="M58.176 24.4012C58.176 23.326 58.41 22.3456 58.8781 21.4602C59.3461 20.5747 60.0482 19.8157 60.9843 19.1832C61.9203 18.5381 63.0841 18.0447 64.4756 17.7032C65.8797 17.349 67.5115 17.1719 69.371 17.1719C70.7498 17.1719 72.1982 17.2731 73.7162 17.4755C75.2468 17.6779 76.8217 17.9878 78.4408 18.4053C78.3776 17.6969 78.1625 17.0454 77.7957 16.4509C77.4288 15.8437 76.9165 15.3251 76.2587 14.895C75.6136 14.4522 74.8293 14.1107 73.9059 13.8704C72.9951 13.63 71.9579 13.5098 70.7941 13.5098C70.1616 13.5098 69.4659 13.5478 68.7069 13.6237C67.9479 13.6996 67.1636 13.8134 66.354 13.9652C65.5445 14.117 64.7412 14.3068 63.9443 14.5345C63.16 14.7622 62.4263 15.0341 61.7432 15.3504L60.0355 10.7396C60.8831 10.436 61.7875 10.1577 62.7489 9.90469C63.7229 9.6517 64.7159 9.43665 65.7279 9.25956C66.7399 9.06981 67.7518 8.92434 68.7638 8.82314C69.7758 8.72194 70.7561 8.67135 71.7049 8.67135C75.8919 8.67135 79.0037 9.74024 81.0403 11.878C83.0769 14.0158 84.0952 17.2921 84.0952 21.7068V31.4597H78.4788V29.3536C77.8969 29.6951 77.2581 30.0177 76.5623 30.3212C75.8792 30.6248 75.1329 30.8905 74.3233 31.1182C73.5138 31.3459 72.6409 31.523 71.7049 31.6495C70.7814 31.7886 69.8011 31.8582 68.7638 31.8582C67.0182 31.8582 65.4812 31.6684 64.153 31.2889C62.8374 30.9095 61.7369 30.3845 60.8514 29.7141C59.966 29.0436 59.2955 28.2594 58.8401 27.3612C58.3974 26.4505 58.176 25.4638 58.176 24.4012ZM64.0961 24.2115C64.0961 24.5783 64.1909 24.9325 64.3807 25.274C64.5704 25.6029 64.874 25.9002 65.2915 26.1658C65.7089 26.4188 66.2402 26.6275 66.8853 26.792C67.5431 26.9438 68.3337 27.0197 69.2571 27.0197C70.2438 27.0197 71.1989 26.9311 72.1223 26.754C73.0457 26.5769 73.9059 26.3429 74.7028 26.052C75.4998 25.761 76.2208 25.4258 76.8659 25.0463C77.5111 24.6668 78.0487 24.2747 78.4788 23.8699V22.8832C77.6186 22.6429 76.7647 22.4405 75.9172 22.2761C75.0823 22.1116 74.2791 21.9851 73.5074 21.8966C72.7485 21.7954 72.0274 21.7258 71.3443 21.6879C70.6739 21.6499 70.0857 21.6309 69.5797 21.6309C68.5298 21.6309 67.657 21.7005 66.9612 21.8396C66.2655 21.9788 65.7026 22.1685 65.2725 22.4089C64.8424 22.6366 64.5388 22.9085 64.3617 23.2248C64.1846 23.541 64.0961 23.8699 64.0961 24.2115Z" fill="white"/>
<path d="M86.9285 0.170775H92.545V31.6495H86.9285V0.170775Z" fill="white"/>
<path d="M94.9925 16.4509C94.9925 14.3384 95.391 12.3714 96.1879 10.5498C96.9848 8.71562 98.136 7.12809 99.6413 5.78722C101.159 4.43371 103.006 3.37114 105.182 2.59951C107.37 1.82788 109.843 1.44206 112.601 1.44206C115.017 1.44206 117.231 1.68873 119.242 2.18207C121.266 2.66275 123.144 3.40276 124.877 4.40208L122.107 8.95596C121.588 8.61442 120.988 8.31083 120.304 8.04519C119.634 7.77954 118.913 7.55818 118.141 7.38108C117.382 7.19134 116.592 7.04586 115.77 6.94467C114.96 6.84347 114.157 6.79287 113.36 6.79287C111.437 6.79287 109.723 7.03321 108.218 7.5139C106.712 7.98194 105.441 8.64605 104.404 9.50622C103.379 10.3538 102.595 11.372 102.051 12.5611C101.52 13.7375 101.254 15.0341 101.254 16.4509C101.254 17.9183 101.532 19.2654 102.089 20.4925C102.646 21.7195 103.449 22.782 104.499 23.6802C105.561 24.5657 106.852 25.2614 108.37 25.7674C109.9 26.2607 111.627 26.5074 113.55 26.5074C114.422 26.5074 115.289 26.4441 116.149 26.3176C117.009 26.1911 117.838 26.0204 118.635 25.8053C119.444 25.5776 120.222 25.312 120.969 25.0084C121.715 24.6921 122.411 24.3506 123.056 23.9838L125.826 28.5376C124.207 29.5749 122.335 30.3908 120.21 30.9854C118.084 31.5672 115.827 31.8582 113.436 31.8582C110.387 31.8582 107.712 31.466 105.41 30.6818C103.107 29.8848 101.185 28.797 99.6413 27.4181C98.098 26.0267 96.9342 24.3949 96.15 22.5227C95.3783 20.6379 94.9925 18.614 94.9925 16.4509Z" fill="white"/>
<path d="M127.672 0H133.289V10.7775C134.465 10.1324 135.774 9.62007 137.216 9.24058C138.671 8.86109 140.195 8.67135 141.789 8.67135C143.636 8.67135 145.293 8.94331 146.76 9.48725C148.24 10.0312 149.493 10.8155 150.517 11.8401C151.542 12.8521 152.326 14.0854 152.87 15.5401C153.427 16.9948 153.705 18.633 153.705 20.4545V31.4597H148.108V20.6822C148.108 19.6196 147.937 18.6519 147.595 17.7791C147.254 16.8936 146.754 16.1346 146.096 15.5022C145.439 14.8697 144.635 14.3827 143.687 14.0411C142.751 13.6869 141.688 13.5098 140.499 13.5098C139.069 13.5098 137.741 13.7375 136.514 14.1929C135.287 14.6483 134.212 15.2239 133.289 15.9196V31.4597H127.672V0Z" fill="white"/>
<path d="M156.119 24.1925C156.119 23.1173 156.353 22.1369 156.821 21.2514C157.289 20.366 157.992 19.607 158.928 18.9745C159.864 18.3294 161.027 17.836 162.419 17.4945C163.823 17.1403 165.455 16.9632 167.314 16.9632C168.693 16.9632 170.141 17.0644 171.659 17.2668C173.19 17.4692 174.765 17.7791 176.384 18.1965C176.321 17.4882 176.106 16.8367 175.739 16.2422C175.372 15.635 174.86 15.1164 174.202 14.6863C173.557 14.2435 172.773 13.902 171.849 13.6616C170.938 13.4213 169.901 13.3011 168.737 13.3011C168.105 13.3011 167.409 13.3391 166.65 13.415C165.891 13.4909 165.107 13.6047 164.297 13.7565C163.488 13.9083 162.685 14.0981 161.888 14.3257C161.103 14.5534 160.37 14.8254 159.687 15.1417L157.979 10.5308C158.826 10.2273 159.731 9.94896 160.692 9.69597C161.666 9.44298 162.659 9.22793 163.671 9.05084C164.683 8.86109 165.695 8.71562 166.707 8.61442C167.719 8.51323 168.699 8.46263 169.648 8.46263C173.835 8.46263 176.947 9.53152 178.984 11.6693C181.02 13.8071 182.039 17.0834 182.039 21.4981V31.251H176.422V29.1448C175.84 29.4864 175.201 29.8089 174.506 30.1125C173.823 30.4161 173.076 30.6818 172.267 30.9095C171.457 31.1372 170.584 31.3143 169.648 31.4407C168.725 31.5799 167.744 31.6495 166.707 31.6495C164.961 31.6495 163.425 31.4597 162.096 31.0802C160.781 30.7007 159.68 30.1758 158.795 29.5054C157.909 28.8349 157.239 28.0506 156.783 27.1525C156.341 26.2417 156.119 25.2551 156.119 24.1925ZM162.039 24.0027C162.039 24.3696 162.134 24.7238 162.324 25.0653C162.514 25.3942 162.817 25.6915 163.235 25.9571C163.652 26.2101 164.184 26.4188 164.829 26.5833C165.486 26.7351 166.277 26.811 167.2 26.811C168.187 26.811 169.142 26.7224 170.066 26.5453C170.989 26.3682 171.849 26.1342 172.646 25.8433C173.443 25.5523 174.164 25.2171 174.809 24.8376C175.454 24.4581 175.992 24.066 176.422 23.6612V22.6745C175.562 22.4342 174.708 22.2318 173.861 22.0673C173.026 21.9029 172.222 21.7764 171.451 21.6879C170.692 21.5867 169.971 21.5171 169.288 21.4791C168.617 21.4412 168.029 21.4222 167.523 21.4222C166.473 21.4222 165.6 21.4918 164.905 21.6309C164.209 21.7701 163.646 21.9598 163.216 22.2002C162.786 22.4279 162.482 22.6998 162.305 23.0161C162.128 23.3323 162.039 23.6612 162.039 24.0027Z" fill="white"/>
<path d="M184.688 9.06981H190.304V12.2955C191.544 11.3721 192.853 10.5751 194.232 9.90469C195.611 9.23426 196.983 8.72194 198.349 8.36775L200 13.5098C197.837 13.7249 195.933 14.2119 194.289 14.9709C192.657 15.7172 191.329 16.7735 190.304 18.1396V31.4597H184.688V9.06981Z" fill="white"/>
<path d="M195.745 31.7707C196.119 31.9236 196.535 32 196.992 32C197.46 32 197.875 31.9236 198.239 31.7707C198.613 31.6051 198.93 31.3885 199.19 31.121C199.449 30.8408 199.647 30.5223 199.782 30.1656C199.927 29.7962 200 29.4076 200 29C200 28.5796 199.927 28.1911 199.782 27.8344C199.647 27.465 199.449 27.1465 199.19 26.879C198.93 26.6115 198.613 26.4013 198.239 26.2484C197.875 26.0828 197.46 26 196.992 26C196.535 26 196.119 26.0828 195.745 26.2484C195.382 26.4013 195.07 26.6115 194.81 26.879C194.551 27.1465 194.348 27.465 194.203 27.8344C194.068 28.1911 194 28.5796 194 29C194 29.4076 194.068 29.7962 194.203 30.1656C194.348 30.5223 194.551 30.8408 194.81 31.121C195.07 31.3885 195.382 31.6051 195.745 31.7707Z" fill="#6785D3"/>
</svg>
