<svg width="21" height="21" viewBox="0 0 21 21" fill="none" xmlns="http://www.w3.org/2000/svg">
<path d="M16.1498 12.975L15.0748 11.9C15.3581 11.55 15.579 11.1667 15.7373 10.75C15.8956 10.3333 15.9998 9.9 16.0498 9.45C16.0871 9.2625 16.1772 9.10313 16.3202 8.97188C16.4631 8.84062 16.6216 8.775 16.7956 8.775C17.0317 8.775 17.2248 8.85417 17.3748 9.0125C17.5248 9.17083 17.5831 9.35833 17.5498 9.575C17.4665 10.1917 17.3081 10.7917 17.0748 11.375C16.8415 11.9583 16.5331 12.4917 16.1498 12.975ZM12.9498 9.775L11.6248 8.475V2.525C11.6248 2.23458 11.5266 1.99114 11.3301 1.79467C11.1337 1.59822 10.8902 1.5 10.5998 1.5C10.3094 1.5 10.066 1.59822 9.8695 1.79467C9.67304 1.99114 9.57481 2.23458 9.57481 2.525V6.4L8.0748 4.9V2.525C8.0748 1.82362 8.32015 1.22743 8.81083 0.73645C9.30151 0.245484 9.89735 0 10.5983 0C11.2993 0 11.8956 0.245484 12.3873 0.73645C12.879 1.22743 13.1248 1.82362 13.1248 2.525V8.775C13.1248 8.90833 13.1123 9.075 13.0873 9.275C13.0623 9.475 13.0165 9.64167 12.9498 9.775ZM19.2748 20.15L0.374805 1.25C0.241471 1.1237 0.174805 0.962958 0.174805 0.767775C0.174805 0.572592 0.241471 0.408333 0.374805 0.275C0.508138 0.141667 0.666471 0.075 0.849805 0.075C1.03314 0.075 1.19147 0.141667 1.3248 0.275L20.2498 19.2C20.3831 19.3333 20.4498 19.4917 20.4498 19.675C20.4498 19.8583 20.3831 20.0167 20.2498 20.15C20.1165 20.2833 19.9522 20.35 19.757 20.35C19.5618 20.35 19.4011 20.2833 19.2748 20.15ZM9.8498 18.25V15.6C8.21647 15.4167 6.82064 14.7625 5.6623 13.6375C4.50397 12.5125 3.83314 11.1583 3.6498 9.575C3.61647 9.35833 3.67897 9.17083 3.8373 9.0125C3.99564 8.85417 4.19147 8.775 4.4248 8.775C4.5998 8.775 4.75605 8.84167 4.89355 8.975C5.03105 9.10833 5.11647 9.26667 5.1498 9.45C5.33314 10.8 5.93991 11.9208 6.97011 12.8125C8.00031 13.7042 9.20845 14.15 10.5945 14.15C11.2314 14.15 11.8424 14.0472 12.4276 13.8416C13.0127 13.6359 13.5452 13.3471 14.0248 12.975L15.0998 14.05C14.5831 14.4833 14.008 14.8297 13.3745 15.0892C12.7409 15.3486 12.066 15.5189 11.3498 15.6V18.25C11.3498 18.4625 11.2775 18.6406 11.1329 18.7844C10.9883 18.9281 10.8092 19 10.5954 19C10.3817 19 10.204 18.9281 10.0623 18.7844C9.92064 18.6406 9.8498 18.4625 9.8498 18.25Z" fill="white"/>
</svg>
