<svg width="14" height="19" viewBox="0 0 14 19" fill="none" xmlns="http://www.w3.org/2000/svg">
<path d="M6.99971 11.425C6.28304 11.425 5.68304 11.1674 5.19971 10.6521C4.71638 10.1368 4.47471 9.51112 4.47471 8.775V2.5C4.47471 1.80555 4.72005 1.21527 5.21074 0.729175C5.70142 0.243058 6.29725 0 6.99824 0C7.69922 0 8.29554 0.243058 8.78721 0.729175C9.27888 1.21527 9.52471 1.80555 9.52471 2.5V8.775C9.52471 9.51112 9.28304 10.1368 8.79971 10.6521C8.31638 11.1674 7.71638 11.425 6.99971 11.425ZM6.99534 19C6.78159 19 6.60388 18.9281 6.46221 18.7844C6.32055 18.6406 6.24971 18.4625 6.24971 18.25V15.6C4.61638 15.4167 3.22054 14.7625 2.06221 13.6375C0.903878 12.5125 0.233045 11.1583 0.0497113 9.575C0.0163779 9.35833 0.0788779 9.17083 0.237211 9.0125C0.395545 8.85417 0.591378 8.775 0.824711 8.775C0.999711 8.775 1.15596 8.84167 1.29346 8.975C1.43096 9.10833 1.51638 9.26667 1.54971 9.45C1.73304 10.8 2.33989 11.9208 3.37026 12.8125C4.40061 13.7042 5.60894 14.15 6.99526 14.15C8.38156 14.15 9.59138 13.7042 10.6247 12.8125C11.658 11.9208 12.2664 10.8 12.4497 9.45C12.487 9.2625 12.5771 9.10313 12.7201 8.97188C12.863 8.84062 13.0215 8.775 13.1955 8.775C13.4316 8.775 13.6247 8.85417 13.7747 9.0125C13.9247 9.17083 13.983 9.35833 13.9497 9.575C13.7664 11.1583 13.0955 12.5125 11.9372 13.6375C10.7789 14.7625 9.38305 15.4167 7.74971 15.6V18.25C7.74971 18.4625 7.67742 18.6406 7.53284 18.7844C7.38824 18.9281 7.20907 19 6.99534 19ZM6.99971 9.925C7.29971 9.925 7.54555 9.8125 7.73721 9.5875C7.92888 9.3625 8.02471 9.09167 8.02471 8.775V2.5C8.02471 2.21667 7.92648 1.97917 7.73001 1.7875C7.53356 1.59583 7.29013 1.5 6.99971 1.5C6.7093 1.5 6.46586 1.59583 6.26941 1.7875C6.07294 1.97917 5.97471 2.21667 5.97471 2.5V8.775C5.97471 9.09167 6.07054 9.3625 6.26221 9.5875C6.45388 9.8125 6.69971 9.925 6.99971 9.925Z" fill="white"/>
</svg>
