<svg width="21" height="21" viewBox="0 0 21 21" fill="none" xmlns="http://www.w3.org/2000/svg">
<path d="M16.0253 17.2996C15.7419 17.4996 15.4461 17.6829 15.1378 17.8496C14.8294 18.0163 14.5086 18.1663 14.1753 18.2996C13.9753 18.3829 13.7711 18.3829 13.5628 18.2996C13.3544 18.2163 13.2086 18.0746 13.1253 17.8746C13.0419 17.6913 13.0461 17.5079 13.1378 17.3246C13.2294 17.1413 13.3753 17.0079 13.5753 16.9246C13.8586 16.8246 14.1378 16.7038 14.4128 16.5621C14.6878 16.4204 14.9419 16.2413 15.1753 16.0246L10.8253 12.0746V16.1996C10.8253 16.5329 10.6711 16.7621 10.3628 16.8871C10.0544 17.0121 9.7836 16.9579 9.55027 16.7246L5.82527 12.9996H2.57527C2.3586 12.9996 2.17943 12.9288 2.03777 12.7871C1.8961 12.6454 1.82527 12.4663 1.82527 12.2496V7.74961C1.82527 7.53294 1.8961 7.35378 2.03777 7.21211C2.17943 7.07044 2.3586 6.99961 2.57527 6.99961H5.72527L0.750267 2.02461C0.600267 1.87461 0.529434 1.69544 0.537767 1.48711C0.546101 1.27878 0.625267 1.09961 0.775267 0.949609C0.925267 0.799609 1.10443 0.724609 1.31277 0.724609C1.5211 0.724609 1.70027 0.799609 1.85027 0.949609L19.8753 18.9746C20.0253 19.1246 20.1003 19.3038 20.1003 19.5121C20.1003 19.7204 20.0253 19.8996 19.8753 20.0496C19.7253 20.1996 19.5419 20.2746 19.3253 20.2746C19.1086 20.2746 18.9253 20.1996 18.7753 20.0496L16.0253 17.2996ZM18.4253 14.7996L17.3503 13.7246C17.6836 13.1579 17.9294 12.5579 18.0878 11.9246C18.2461 11.2913 18.3253 10.6413 18.3253 9.97461C18.3253 8.42461 17.8878 7.02044 17.0128 5.76211C16.1378 4.50378 14.9919 3.59128 13.5753 3.02461C13.3753 2.94128 13.2336 2.80794 13.1503 2.62461C13.0669 2.44128 13.0669 2.25794 13.1503 2.07461C13.2336 1.87461 13.3794 1.73711 13.5878 1.66211C13.7961 1.58711 14.0086 1.59128 14.2253 1.67461C15.9086 2.35794 17.2628 3.44544 18.2878 4.93711C19.3128 6.42878 19.8253 8.10794 19.8253 9.97461C19.8253 10.8246 19.7086 11.6579 19.4753 12.4746C19.2419 13.2913 18.8919 14.0663 18.4253 14.7996ZM15.0753 11.4496L12.8253 9.19961V6.62461C12.8253 6.47461 12.8878 6.36211 13.0128 6.28711C13.1378 6.21211 13.2669 6.21628 13.4003 6.29961C14.0336 6.68294 14.5128 7.21211 14.8378 7.88711C15.1628 8.56211 15.3253 9.26628 15.3253 9.99961C15.3253 10.2496 15.3044 10.4954 15.2628 10.7371C15.2211 10.9788 15.1586 11.2163 15.0753 11.4496ZM10.8253 7.19961L8.22527 4.59961L9.55027 3.27461C9.7836 3.04128 10.0544 2.98711 10.3628 3.11211C10.6711 3.23711 10.8253 3.46628 10.8253 3.79961V7.19961ZM9.32527 14.3496V10.5996L7.22527 8.49961H3.32527V11.4996H6.47527L9.32527 14.3496Z" fill="#F24B2A"/>
</svg>
