<svg width="177" height="178" viewBox="0 0 177 178" fill="none" xmlns="http://www.w3.org/2000/svg">
<ellipse cx="88.2353" cy="89.1765" rx="88.2353" ry="88.2353" fill="#1F4FCC"/>
<path d="M40 47.4117H77.4617C83.1163 47.4117 88.017 48.0079 92.1637 49.2003C96.3104 50.3612 99.7503 52.0556 102.483 54.2834C105.216 56.5113 107.243 59.2254 108.562 62.4259C109.913 65.6265 110.588 69.2506 110.588 73.2983C110.588 76.0281 110.258 78.6325 109.599 81.1113C108.939 83.5588 107.918 85.818 106.536 87.8889C105.185 89.9598 103.473 91.8111 101.4 93.4427C99.3262 95.043 96.8915 96.3765 94.0957 97.4434L110.117 120.977H91.8338L77.98 100.079H77.556L54.9376 100.032V120.977H40V47.4117ZM77.8387 87.1358C80.666 87.1358 83.132 86.8064 85.2368 86.1474C87.373 85.4885 89.1479 84.5629 90.5615 83.3705C92.0066 82.1782 93.0747 80.7348 93.7658 79.0404C94.4883 77.3146 94.8496 75.4006 94.8496 73.2983C94.8496 69.1878 93.436 66.0187 90.6087 63.7909C87.7814 61.5317 83.5247 60.4021 77.8387 60.4021H54.9376V87.1358H77.8387Z" fill="white"/>
<ellipse cx="128.235" cy="109.517" rx="11.7647" ry="11.7647" fill="#C2D3FF"/>
</svg>
