<svg width="16" height="22" viewBox="0 0 16 22" fill="none" xmlns="http://www.w3.org/2000/svg">
<path d="M1.5 21.9998C1.1 21.9998 0.75 21.8498 0.45 21.5498C0.15 21.2498 0 20.8998 0 20.4998V7.7748C0 7.3748 0.15 7.0248 0.45 6.7248C0.75 6.4248 1.1 6.2748 1.5 6.2748H4.975C5.1875 6.2748 5.36562 6.3471 5.50938 6.49168C5.65313 6.63628 5.725 6.81545 5.725 7.02918C5.725 7.24293 5.65313 7.42064 5.50938 7.5623C5.36562 7.70397 5.1875 7.7748 4.975 7.7748H1.5V20.4998H14.5V7.7748H10.975C10.7625 7.7748 10.5844 7.70251 10.4406 7.55793C10.2969 7.41333 10.225 7.23416 10.225 7.02043C10.225 6.80668 10.2969 6.62897 10.4406 6.4873C10.5844 6.34564 10.7625 6.2748 10.975 6.2748H14.5C14.9 6.2748 15.25 6.4248 15.55 6.7248C15.85 7.0248 16 7.3748 16 7.7748V20.4998C16 20.8998 15.85 21.2498 15.55 21.5498C15.25 21.8498 14.9 21.9998 14.5 21.9998H1.5ZM7.225 2.8998L5.55 4.5748C5.4 4.7248 5.225 4.7998 5.025 4.7998C4.825 4.7998 4.64674 4.7248 4.49023 4.5748C4.34674 4.4248 4.275 4.24564 4.275 4.0373C4.275 3.82897 4.35 3.6498 4.5 3.4998L7.45 0.524805C7.6 0.374805 7.775 0.299805 7.975 0.299805C8.175 0.299805 8.35 0.374805 8.5 0.524805L11.475 3.4998C11.625 3.6498 11.7 3.82612 11.7 4.02876C11.7 4.23139 11.6283 4.40639 11.4848 4.55376C11.3283 4.70112 11.1461 4.7748 10.9383 4.7748C10.7306 4.7748 10.5511 4.6998 10.4 4.5498L8.725 2.8998V13.5748C8.725 13.7873 8.65271 13.9654 8.50813 14.1092C8.36353 14.2529 8.18436 14.3248 7.97063 14.3248C7.75688 14.3248 7.57917 14.2529 7.4375 14.1092C7.29583 13.9654 7.225 13.7873 7.225 13.5748V2.8998Z" fill="white"/>
</svg>
