<svg width="18" height="18" viewBox="0 0 18 18" fill="none" xmlns="http://www.w3.org/2000/svg">
<path d="M16.5 8.97517C16.5 7.4085 16.0625 6.00016 15.1875 4.75016C14.3125 3.50016 13.1667 2.59183 11.75 2.02516C11.55 1.94183 11.4083 1.8085 11.325 1.62516C11.2417 1.44183 11.2417 1.2585 11.325 1.07516C11.4083 0.875164 11.5542 0.737664 11.7625 0.662664C11.9708 0.587664 12.1833 0.591831 12.4 0.675164C14.0833 1.3585 15.4375 2.45016 16.4625 3.95016C17.4875 5.45016 18 7.12517 18 8.97517C18 10.8252 17.4875 12.5002 16.4625 14.0002C15.4375 15.5002 14.0833 16.5918 12.4 17.2752C12.1833 17.3585 11.9708 17.3627 11.7625 17.2877C11.5542 17.2127 11.4083 17.0752 11.325 16.8752C11.2417 16.6918 11.2417 16.5085 11.325 16.3252C11.4083 16.1418 11.55 16.0085 11.75 15.9252C13.1667 15.3585 14.3125 14.4502 15.1875 13.2002C16.0625 11.9502 16.5 10.5418 16.5 8.97517ZM4 12.0002H0.75C0.533333 12.0002 0.354167 11.9293 0.2125 11.7877C0.0708333 11.646 0 11.4668 0 11.2502V6.75016C0 6.5335 0.0708333 6.35433 0.2125 6.21267C0.354167 6.071 0.533333 6.00016 0.75 6.00016H4L7.725 2.27516C7.95833 2.04183 8.22917 1.98766 8.5375 2.11266C8.84583 2.23766 9 2.46683 9 2.80016V15.2002C9 15.5335 8.84583 15.7627 8.5375 15.8877C8.22917 16.0127 7.95833 15.9585 7.725 15.7252L4 12.0002ZM13.5 9.00017C13.5 9.86683 13.2833 10.6502 12.85 11.3502C12.4167 12.0502 11.8083 12.5835 11.025 12.9502C10.8917 13.0168 10.7708 13.0085 10.6625 12.9252C10.5542 12.8418 10.5 12.7335 10.5 12.6002V5.37516C10.5 5.24183 10.5542 5.1335 10.6625 5.05016C10.7708 4.96683 10.8917 4.9585 11.025 5.02516C11.8083 5.39183 12.4167 5.9335 12.85 6.65017C13.2833 7.36683 13.5 8.15017 13.5 9.00017ZM7.5 4.80016L4.675 7.50017H1.5V10.5002H4.675L7.5 13.2252V4.80016Z" fill="white"/>
</svg>
