<svg width="22" height="20" viewBox="0 0 22 20" fill="none" xmlns="http://www.w3.org/2000/svg">
<path d="M18.4 14.2496C18.2333 14.0829 18.1417 13.8746 18.125 13.6246C18.1083 13.3746 18.1833 13.1579 18.35 12.9746C18.9667 12.2246 19.4375 11.4454 19.7625 10.6371C20.0875 9.82873 20.25 8.8579 20.25 7.72457C20.25 6.59123 20.0875 5.6204 19.7625 4.81207C19.4375 4.00373 18.9667 3.22457 18.35 2.47457C18.1833 2.29123 18.1042 2.07873 18.1125 1.83707C18.1208 1.5954 18.2167 1.3829 18.4 1.19957C18.5833 1.01623 18.7917 0.928734 19.025 0.937067C19.2583 0.9454 19.45 1.04123 19.6 1.22457C20.35 2.12457 20.9375 3.0954 21.3625 4.13707C21.7875 5.17873 22 6.37457 22 7.72457C22 9.07457 21.7875 10.2704 21.3625 11.3121C20.9375 12.3537 20.35 13.3246 19.6 14.2246C19.45 14.4079 19.2583 14.5037 19.025 14.5121C18.7917 14.5204 18.5833 14.4329 18.4 14.2496ZM14.875 10.6496C14.725 10.4996 14.6375 10.3121 14.6125 10.0871C14.5875 9.86207 14.6417 9.64957 14.775 9.44957C14.925 9.19957 15.0417 8.9329 15.125 8.64957C15.2083 8.36623 15.25 8.0579 15.25 7.72457C15.25 7.39123 15.2083 7.0829 15.125 6.79957C15.0417 6.51623 14.925 6.24957 14.775 5.99957C14.6417 5.79957 14.5875 5.58707 14.6125 5.36207C14.6375 5.13707 14.725 4.94957 14.875 4.79957C15.0583 4.61623 15.2833 4.52873 15.55 4.53707C15.8167 4.5454 16.0167 4.6579 16.15 4.87457C16.4167 5.29123 16.625 5.74123 16.775 6.22457C16.925 6.7079 17 7.2079 17 7.72457C17 8.24123 16.925 8.74123 16.775 9.22457C16.625 9.7079 16.4167 10.1579 16.15 10.5746C16.0167 10.7912 15.8167 10.9037 15.55 10.9121C15.2833 10.9204 15.0583 10.8329 14.875 10.6496ZM8 11.4746C6.9 11.4746 6 11.1246 5.3 10.4246C4.6 9.72457 4.25 8.82457 4.25 7.72457C4.25 6.62457 4.6 5.72457 5.3 5.02457C6 4.32457 6.9 3.97457 8 3.97457C9.1 3.97457 10 4.32457 10.7 5.02457C11.4 5.72457 11.75 6.62457 11.75 7.72457C11.75 8.82457 11.4 9.72457 10.7 10.4246C10 11.1246 9.1 11.4746 8 11.4746ZM0.75 19.4996C0.533333 19.4996 0.354167 19.4287 0.2125 19.2871C0.0708333 19.1454 0 18.9662 0 18.7496V17.1496C0 16.5162 0.158333 15.9787 0.475 15.5371C0.791667 15.0954 1.2 14.7496 1.7 14.4996C2.55 14.0662 3.55417 13.7079 4.7125 13.4246C5.87083 13.1412 6.96667 12.9996 8 12.9996C9.03333 12.9996 10.125 13.1412 11.275 13.4246C12.425 13.7079 13.425 14.0662 14.275 14.4996C14.775 14.7496 15.1875 15.0954 15.5125 15.5371C15.8375 15.9787 16 16.5162 16 17.1496V18.7496C16 18.9662 15.9292 19.1454 15.7875 19.2871C15.6458 19.4287 15.4667 19.4996 15.25 19.4996H0.75ZM1.5 17.9996H14.5V17.1496C14.5 16.8829 14.4292 16.6371 14.2875 16.4121C14.1458 16.1871 13.9417 15.9996 13.675 15.8496C12.875 15.3996 11.9667 15.0621 10.95 14.8371C9.93333 14.6121 8.95 14.4996 8 14.4996C7.05 14.4996 6.0625 14.6204 5.0375 14.8621C4.0125 15.1037 3.1 15.4329 2.3 15.8496C2.06667 15.9662 1.875 16.1454 1.725 16.3871C1.575 16.6287 1.5 16.8829 1.5 17.1496V17.9996ZM8 9.97457C8.65 9.97457 9.1875 9.76207 9.6125 9.33707C10.0375 8.91207 10.25 8.37457 10.25 7.72457C10.25 7.07457 10.0375 6.53707 9.6125 6.11207C9.1875 5.68707 8.65 5.47457 8 5.47457C7.35 5.47457 6.8125 5.68707 6.3875 6.11207C5.9625 6.53707 5.75 7.07457 5.75 7.72457C5.75 8.37457 5.9625 8.91207 6.3875 9.33707C6.8125 9.76207 7.35 9.97457 8 9.97457Z" fill="white"/>
</svg>
