<svg width="200" height="33" viewBox="0 0 200 33" fill="none" xmlns="http://www.w3.org/2000/svg">
<path d="M0 1.85431H15.356C17.6739 1.85431 19.6827 2.09898 21.3825 2.58831C23.0823 3.06477 24.4923 3.76013 25.6127 4.67441C26.733 5.58869 27.5636 6.70257 28.1044 8.01604C28.6581 9.32951 28.935 10.8168 28.935 12.478C28.935 13.5983 28.7998 14.6671 28.5293 15.6844C28.2589 16.6888 27.8404 17.616 27.2738 18.4659C26.7201 19.3158 26.0183 20.0755 25.1684 20.7451C24.3185 21.4019 23.3205 21.9491 22.1745 22.387L28.7418 32.0448H21.2473L15.5685 23.4686H15.3946L6.12309 23.4493V32.0448H0V1.85431ZM15.5105 18.1568C16.6695 18.1568 17.6803 18.0216 18.5431 17.7512C19.4188 17.4808 20.1463 17.1009 20.7258 16.6115C21.3181 16.1222 21.756 15.5299 22.0393 14.8345C22.3354 14.1263 22.4835 13.3407 22.4835 12.478C22.4835 10.7911 21.904 9.49047 20.7451 8.57619C19.5862 7.64904 17.8413 7.18546 15.5105 7.18546H6.12309V18.1568H15.5105Z" fill="white"/>
<path d="M29.4349 20.5713C29.4349 19.026 29.7504 17.5516 30.3813 16.148C31.0123 14.7315 31.9202 13.4824 33.1049 12.4007C34.2895 11.319 35.7382 10.4563 37.4509 9.8124C39.1764 9.16854 41.1338 8.84661 43.3229 8.84661C45.4991 8.84661 47.4564 9.17498 49.1949 9.83172C50.9461 10.4756 52.427 11.3641 53.6375 12.4973C54.8608 13.6305 55.7944 14.9633 56.4383 16.4957C57.095 18.028 57.4234 19.6699 57.4234 21.4212C57.4234 21.6401 57.4169 21.8783 57.404 22.1359C57.404 22.3805 57.3912 22.6059 57.3654 22.8119H35.8091C36.0537 23.4944 36.4465 24.1189 36.9873 24.6855C37.541 25.2521 38.23 25.7415 39.0541 26.1535C39.8782 26.5656 40.8311 26.8875 41.9128 27.1193C42.9945 27.3382 44.1921 27.4477 45.5056 27.4477C46.819 27.4477 48.1261 27.3125 49.4266 27.0421C50.7272 26.7588 51.9699 26.4046 53.1546 25.9797L55.0862 30.345C54.3393 30.6927 53.5795 31.0018 52.8069 31.2722C52.0471 31.5297 51.2488 31.7487 50.4117 31.9289C49.5876 32.0963 48.7184 32.2251 47.8041 32.3153C46.9027 32.4054 45.9498 32.4505 44.9454 32.4505C42.3828 32.4505 40.1358 32.1414 38.2042 31.5233C36.2726 30.9052 34.6565 30.0618 33.356 28.9929C32.0554 27.9241 31.0767 26.6686 30.42 25.2264C29.7632 23.7841 29.4349 22.2324 29.4349 20.5713ZM51.3582 18.35C51.1522 17.719 50.8303 17.1331 50.3924 16.5922C49.9675 16.0385 49.4331 15.5621 48.7892 15.1629C48.1454 14.7508 47.3985 14.4289 46.5486 14.1971C45.6987 13.9653 44.7651 13.8494 43.7478 13.8494C42.6661 13.8494 41.681 13.9717 40.7925 14.2164C39.904 14.4611 39.1249 14.7894 38.4553 15.2015C37.7857 15.6136 37.2255 16.09 36.7748 16.6309C36.337 17.1717 36.0151 17.7447 35.8091 18.35H51.3582Z" fill="white"/>
<path d="M59.1247 24.8594C59.1247 23.7648 59.3629 22.7668 59.8394 21.8654C60.3158 20.964 61.0305 20.1914 61.9834 19.5475C62.9363 18.8908 64.121 18.3886 65.5375 18.0409C66.9669 17.6804 68.628 17.5001 70.521 17.5001C71.9246 17.5001 73.399 17.6031 74.9443 17.8091C76.5024 18.0152 78.1056 18.3307 79.7539 18.7556C79.6895 18.0345 79.4706 17.3713 79.0972 16.7661C78.7237 16.148 78.2022 15.62 77.5326 15.1822C76.8758 14.7315 76.0775 14.3838 75.1374 14.1391C74.2103 13.8945 73.1544 13.7721 71.9697 13.7721C71.3258 13.7721 70.6175 13.8108 69.8449 13.888C69.0723 13.9653 68.2739 14.0812 67.4498 14.2357C66.6256 14.3902 65.8079 14.5834 64.9967 14.8152C64.1983 15.047 63.4514 15.3238 62.756 15.6458L61.0176 10.952C61.8804 10.643 62.8011 10.3597 63.7798 10.1021C64.7713 9.8446 65.7822 9.62568 66.8123 9.4454C67.8425 9.25225 68.8727 9.10416 69.9029 9.00114C70.933 8.89812 71.931 8.84661 72.8968 8.84661C77.1591 8.84661 80.3269 9.93474 82.4001 12.111C84.4734 14.2872 85.51 17.6224 85.51 22.1165V32.0448H79.7925V29.9008C79.2002 30.2485 78.5499 30.5768 77.8416 30.8859C77.1463 31.1949 76.3865 31.4654 75.5624 31.6972C74.7382 31.9289 73.8497 32.1092 72.8968 32.238C71.9568 32.3796 70.9588 32.4505 69.9029 32.4505C68.1258 32.4505 66.5612 32.2573 65.2091 31.871C63.8699 31.4847 62.7496 30.9503 61.8482 30.2678C60.9468 29.5853 60.2643 28.7869 59.8007 27.8726C59.35 26.9455 59.1247 25.9411 59.1247 24.8594ZM65.1512 24.6662C65.1512 25.0397 65.2478 25.4002 65.4409 25.7479C65.6341 26.0827 65.9431 26.3853 66.3681 26.6557C66.793 26.9133 67.3339 27.1258 67.9906 27.2932C68.6602 27.4477 69.465 27.5249 70.4051 27.5249C71.4095 27.5249 72.3817 27.4348 73.3218 27.2545C74.2618 27.0742 75.1374 26.836 75.9487 26.5398C76.7599 26.2437 77.4939 25.9024 78.1507 25.5161C78.8074 25.1298 79.3547 24.7306 79.7925 24.3185V23.3141C78.9169 23.0694 78.0477 22.8634 77.1849 22.696C76.335 22.5286 75.5173 22.3998 74.7318 22.3097C73.9592 22.2067 73.2252 22.1359 72.5298 22.0972C71.8473 22.0586 71.2485 22.0393 70.7334 22.0393C69.6646 22.0393 68.7761 22.1101 68.0679 22.2517C67.3596 22.3934 66.7866 22.5866 66.3488 22.8312C65.9109 23.063 65.6019 23.3399 65.4216 23.6618C65.2413 23.9837 65.1512 24.3185 65.1512 24.6662Z" fill="white"/>
<path d="M88.8065 0H94.524V32.0448H88.8065V0Z" fill="white"/>
<path d="M102.176 13.5403H96.6714V9.25225H102.176V2.16336H107.894V9.25225H113.399V13.5403H107.894V32.0448H102.176V13.5403Z" fill="white"/>
<path d="M115.699 9.25225H121.417V32.0448H115.699V9.25225Z" fill="white"/>
<path d="M124.673 9.25225H130.39V11.1838C131.82 10.3082 133.211 9.70295 134.563 9.36814C135.928 9.02046 137.26 8.84661 138.561 8.84661C140.377 8.84661 142.044 9.13635 143.564 9.71582C145.083 10.2953 146.384 11.1709 147.466 12.3428C148.303 11.6989 149.127 11.1581 149.938 10.7202C150.749 10.2695 151.561 9.90898 152.372 9.63856C153.183 9.35526 154.007 9.15567 154.844 9.03977C155.681 8.911 156.544 8.84661 157.432 8.84661C159.3 8.84661 160.993 9.10416 162.513 9.61925C164.032 10.1215 165.326 10.8748 166.395 11.8792C167.477 12.8836 168.307 14.1391 168.887 15.6458C169.479 17.1395 169.775 18.8715 169.775 20.8417V32.0448H164.077V21.7689C164.077 20.5198 163.897 19.4059 163.536 18.4272C163.189 17.4357 162.693 16.6051 162.049 15.9355C161.418 15.253 160.658 14.7379 159.77 14.3902C158.894 14.0297 157.928 13.8494 156.872 13.8494C156.293 13.8494 155.701 13.9073 155.095 14.0232C154.49 14.1263 153.898 14.2937 153.318 14.5254C152.752 14.7572 152.217 15.0534 151.715 15.414C151.213 15.7617 150.775 16.1737 150.402 16.6502V32.0448H144.703V21.7689C144.703 20.5198 144.523 19.4059 144.163 18.4272C143.815 17.4357 143.319 16.6051 142.675 15.9355C142.044 15.253 141.278 14.7379 140.377 14.3902C139.488 14.0297 138.51 13.8494 137.441 13.8494C136.784 13.8494 136.121 13.9202 135.451 14.0619C134.794 14.1906 134.157 14.3774 133.539 14.622C132.934 14.8667 132.361 15.1629 131.82 15.5105C131.292 15.8582 130.815 16.251 130.39 16.6888V32.0448H124.673V9.25225Z" fill="white"/>
<path d="M172.012 20.5713C172.012 19.026 172.327 17.5516 172.958 16.148C173.589 14.7315 174.497 13.4824 175.681 12.4007C176.866 11.319 178.315 10.4563 180.028 9.8124C181.753 9.16854 183.71 8.84661 185.9 8.84661C188.076 8.84661 190.033 9.17498 191.771 9.83172C193.523 10.4756 195.004 11.3641 196.214 12.4973C197.437 13.6305 198.371 14.9633 199.015 16.4957C199.672 18.028 200 19.6699 200 21.4212C200 21.6401 199.994 21.8783 199.981 22.1359C199.981 22.3805 199.968 22.6059 199.942 22.8119H178.386C178.63 23.4944 179.023 24.1189 179.564 24.6855C180.118 25.2521 180.807 25.7415 181.631 26.1535C182.455 26.5656 183.408 26.8875 184.489 27.1193C185.571 27.3382 186.769 27.4477 188.082 27.4477C189.396 27.4477 190.703 27.3125 192.003 27.0421C193.304 26.7588 194.547 26.4046 195.731 25.9797L197.663 30.345C196.916 30.6927 196.156 31.0018 195.384 31.2722C194.624 31.5297 193.825 31.7487 192.988 31.9289C192.164 32.0963 191.295 32.2251 190.381 32.3153C189.479 32.4054 188.526 32.4505 187.522 32.4505C184.959 32.4505 182.712 32.1414 180.781 31.5233C178.849 30.9052 177.233 30.0618 175.933 28.9929C174.632 27.9241 173.653 26.6686 172.997 25.2264C172.34 23.7841 172.012 22.2324 172.012 20.5713ZM193.935 18.35C193.729 17.719 193.407 17.1331 192.969 16.5922C192.544 16.0385 192.01 15.5621 191.366 15.1629C190.722 14.7508 189.975 14.4289 189.125 14.1971C188.275 13.9653 187.342 13.8494 186.324 13.8494C185.243 13.8494 184.258 13.9717 183.369 14.2164C182.481 14.4611 181.702 14.7894 181.032 15.2015C180.362 15.6136 179.802 16.09 179.351 16.6309C178.914 17.1717 178.592 17.7447 178.386 18.35H193.935Z" fill="white"/>
<path d="M117.148 6.97526C117.608 7.16003 118.12 7.25242 118.683 7.25242C119.258 7.25242 119.769 7.16003 120.217 6.97526C120.677 6.77509 121.067 6.51332 121.387 6.18996C121.707 5.85121 121.95 5.46626 122.116 5.03512C122.295 4.58858 122.384 4.11894 122.384 3.62621C122.384 3.11808 122.295 2.64844 122.116 2.2173C121.95 1.77076 121.707 1.38581 121.387 1.06246C121.067 0.7391 120.677 0.485035 120.217 0.30026C119.769 0.100086 119.258 0 118.683 0C118.12 0 117.608 0.100086 117.148 0.30026C116.701 0.485035 116.317 0.7391 115.997 1.06246C115.678 1.38581 115.428 1.77076 115.249 2.2173C115.083 2.64844 115 3.11808 115 3.62621C115 4.11894 115.083 4.58858 115.249 5.03512C115.428 5.46626 115.678 5.85121 115.997 6.18996C116.317 6.51332 116.701 6.77509 117.148 6.97526Z" fill="#6785D3"/>
</svg>
