<svg
    fill="none"
    height="24"
    viewBox="0 0 24 24"
    width="24"
    xmlns="http://www.w3.org/2000/svg"
    >
    <path
        className="path"
        clipRule="evenodd"
        d="M11.9999 1C11.4476 1 10.9999 1.44772 10.9999 2V12C10.9999 12.5523 11.4476 13 11.9999 13C12.5522 13 12.9999 12.5523 12.9999 12V2C12.9999 1.44772 12.5522 1 11.9999 1ZM17.6629 5.93278C17.2723 6.32324 17.2722 6.9564 17.6627 7.34699C18.7812 8.46592 19.5429 9.89138 19.8514 11.4432C20.1598 12.9949 20.0012 14.6033 19.3957 16.065C18.7901 17.5266 17.7647 18.7759 16.4492 19.6549C15.1336 20.5338 13.587 21.0029 12.0049 21.0029C10.4227 21.0029 8.87612 20.5338 7.56059 19.6549C6.24505 18.7759 5.21967 17.5266 4.61409 16.065C4.00851 14.6033 3.84993 12.9949 4.1584 11.4432C4.46688 9.89138 5.22854 8.46592 6.3471 7.34699C6.73756 6.9564 6.73746 6.32324 6.34687 5.93278C5.95628 5.54232 5.32312 5.54242 4.93266 5.93301C3.53446 7.33166 2.58237 9.1135 2.19679 11.0532C1.8112 12.9929 2.00942 15.0034 2.76639 16.8305C3.52337 18.6576 4.80509 20.2192 6.44951 21.3178C8.09394 22.4165 10.0272 23.0029 12.0049 23.0029C13.9826 23.0029 15.9158 22.4165 17.5602 21.3178C19.2047 20.2192 20.4864 18.6576 21.2434 16.8305C22.0003 15.0034 22.1986 12.9929 21.813 11.0532C21.4274 9.1135 20.4753 7.33166 19.0771 5.93301C18.6866 5.54242 18.0535 5.54232 17.6629 5.93278Z"
        fill="white"
        fillRule="evenodd"
    />
</svg>