<svg xmlns="http://www.w3.org/2000/svg" xmlns:xlink="http://www.w3.org/1999/xlink" version="1.1" width="256" height="256" viewBox="0 0 256 256" xml:space="preserve">

<defs>
</defs>
<g style="stroke: none; stroke-width: 0; stroke-dasharray: none; stroke-linecap: butt; stroke-linejoin: miter; stroke-miterlimit: 10; fill: none; fill-rule: nonzero; opacity: 1;" transform="translate(1.4065934065934016 1.4065934065934016) scale(2.81 2.81)" >
	<path d="M 45 90 C 20.187 90 0 69.813 0 45 C 0 20.187 20.187 0 45 0 c 24.813 0 45 20.187 45 45 C 90 69.813 69.813 90 45 90 z" style="stroke: none; stroke-width: 1; stroke-dasharray: none; stroke-linecap: butt; stroke-linejoin: miter; stroke-miterlimit: 10; fill: rgb(14,155,10); fill-rule: nonzero; opacity: 1;" transform=" matrix(1 0 0 1 0 0) " stroke-linecap="round" />
	<path d="M 61.884 68.284 l 5.296 -2.671 c 2.519 -1.271 2.821 -4.747 0.559 -6.433 l -7.994 -5.959 c -1.206 -0.899 -2.828 -1.001 -4.137 -0.261 l -2.322 1.312 c -1.114 0.63 -2.478 0.671 -3.607 0.07 c -6.1 -3.247 -10.773 -7.921 -14.021 -14.021 c -0.601 -1.129 -0.56 -2.493 0.07 -3.607 l 1.312 -2.322 c 0.74 -1.309 0.637 -2.931 -0.261 -4.137 l -5.959 -7.994 c -1.686 -2.262 -5.163 -1.96 -6.433 0.559 l -2.671 5.296 c -1.248 2.475 -1.317 5.392 -0.146 7.904 c 6.872 14.734 17.676 25.538 32.41 32.41 C 56.492 69.602 59.409 69.533 61.884 68.284 z" style="stroke: none; stroke-width: 1; stroke-dasharray: none; stroke-linecap: butt; stroke-linejoin: miter; stroke-miterlimit: 10; fill: rgb(255,255,255); fill-rule: nonzero; opacity: 1;" transform=" matrix(1 0 0 1 0 0) " stroke-linecap="round" />
</g>
</svg>