<svg id="Layer_1" data-name="Layer 1" xmlns="http://www.w3.org/2000/svg" viewBox="0 0 122.88 122.88"><defs><style>.cls-1{fill:#ff3b30;fill-rule:evenodd;}</style></defs><title>end-call</title><path class="cls-1" d="M104.89,104.89a61.47,61.47,0,1,1,18-43.45,61.21,61.21,0,0,1-18,43.45ZM74.59,55.72a49.79,49.79,0,0,0-12.38-2.07A41.52,41.52,0,0,0,48,55.8a1.16,1.16,0,0,0-.74.67,4.53,4.53,0,0,0-.27,1.7,16.14,16.14,0,0,0,.2,2c.42,3,.93,6.8-2.42,8l-.22.07-12,3.24-.12,0A4.85,4.85,0,0,1,28,70a11.44,11.44,0,0,1-2.68-4.92,11,11,0,0,1,.42-6.93A23.69,23.69,0,0,1,29,52.39,21.52,21.52,0,0,1,36.55,46a42.74,42.74,0,0,1,10.33-3.6l.29-.07C49,42,51,41.48,53.08,41.17a62.76,62.76,0,0,1,25.14,1.59c6.87,2,13,5.43,16.8,10.7a13.88,13.88,0,0,1,2.92,9.59,12.64,12.64,0,0,1-4.88,8.43,1.34,1.34,0,0,1-1.26.28L78.6,68.38A3.69,3.69,0,0,1,75.41,66a7.73,7.73,0,0,1-.22-4,15.21,15.21,0,0,1,.22-1.6c.3-1.89.63-4.06-.89-4.72Z"/></svg>