<svg
    fill="none"
    height="24"
    viewBox="0 0 24 24"
    width="24"
    xmlns="http://www.w3.org/2000/svg"
    >
    <path
        className="path"
        clipRule="evenodd"
        d="M19 10C19 5.02326 14.9408 1 9.94739 1C4.95395 1 0.894762 5.02326 0.894762 10C0.894762 11.1219 1.1017 12.1979 1.4805 13.1909C1.51708 13.2868 1.5384 13.3429 1.55309 13.3842C1.55498 13.3895 1.55658 13.3941 1.55791 13.398C1.55778 13.3993 1.55765 13.4008 1.5575 13.4023C1.55433 13.4354 1.54887 13.4804 1.53831 13.5661L1.1323 16.8642C1.11352 17.0163 1.09221 17.1889 1.08714 17.3391C1.08152 17.5054 1.0885 17.7635 1.21244 18.0343C1.36721 18.3726 1.64215 18.6412 1.98386 18.7882C2.25749 18.9058 2.5157 18.9069 2.6818 18.8974C2.83189 18.8889 3.00397 18.8636 3.15564 18.8413C3.16494 18.8399 3.17416 18.8386 3.1833 18.8372L6.36857 18.3703C6.45704 18.3574 6.50354 18.3506 6.53763 18.3466C6.53925 18.3464 6.54076 18.3462 6.54217 18.3461C6.54615 18.3474 6.55085 18.349 6.55631 18.3509C6.59904 18.3658 6.657 18.3874 6.75624 18.4246C7.75009 18.7968 8.82607 19 9.94739 19C10.127 19 10.3054 18.9948 10.4826 18.9845C11.4356 21.3332 13.6999 23 16.3684 23C17.0961 23 17.797 22.875 18.4505 22.6444C18.5585 22.6063 18.6255 22.5827 18.6747 22.5664C18.6836 22.5635 18.6909 22.5611 18.6967 22.5593C18.6984 22.5594 18.7002 22.5596 18.7022 22.5599C18.7365 22.5637 18.7832 22.57 18.8699 22.5818L21.8647 22.9908C22.1887 23.0351 22.5139 22.9181 22.7355 22.6775C22.9571 22.4369 23.047 22.1032 22.9763 21.7839L22.365 19.0222C22.3438 18.9262 22.3324 18.8744 22.3251 18.8363C22.3247 18.8342 22.3243 18.8322 22.324 18.8303C22.3258 18.824 22.3281 18.8162 22.3309 18.8066C22.3474 18.7521 22.3716 18.6778 22.411 18.5573C22.6227 17.9093 22.7368 17.2171 22.7368 16.5C22.7368 13.8739 21.2036 11.5914 18.9821 10.57C18.994 10.3814 19 10.1913 19 10ZM17 10.0314C16.7923 10.0106 16.5817 10 16.3684 10C12.8285 10 9.99999 12.9331 9.99999 16.5C9.99999 16.668 10.0063 16.8347 10.0186 16.9996C9.99489 16.9999 9.97116 17 9.94739 17C9.06908 17 8.23053 16.8411 7.45777 16.5517C7.44378 16.5464 7.42947 16.541 7.41489 16.5355C7.27362 16.4823 7.10688 16.4196 6.95457 16.3875C6.81544 16.3583 6.69656 16.3456 6.55439 16.3448C6.39926 16.3439 6.2415 16.3673 6.11407 16.3862C6.10192 16.388 6.09006 16.3898 6.0785 16.3915L3.1528 16.8203L3.52333 13.8105C3.52471 13.7993 3.52615 13.7878 3.52762 13.776C3.54303 13.6525 3.56211 13.4997 3.55858 13.3499C3.55533 13.2124 3.54142 13.098 3.51164 12.9638C3.47907 12.817 3.41736 12.656 3.36504 12.5196C3.35963 12.5055 3.35432 12.4916 3.34916 12.4781C3.05577 11.709 2.89476 10.8743 2.89476 10C2.89476 6.14018 6.04614 3 9.94739 3C13.8486 3 17 6.14018 17 10C17 10.0105 17 10.021 17 10.0314ZM12.1392 17.6333C12.0484 17.2719 12 16.8923 12 16.5C12 13.9918 13.9785 12 16.3684 12C18.7583 12 20.7368 13.9918 20.7368 16.5C20.7368 17.004 20.6567 17.4866 20.5099 17.9362C20.504 17.954 20.4981 17.9722 20.492 17.9906C20.4358 18.1618 20.372 18.3558 20.3464 18.5189C20.3224 18.672 20.3166 18.7898 20.3256 18.9445C20.3351 19.1086 20.3728 19.2775 20.4035 19.4152C20.4065 19.4286 20.4095 19.4417 20.4123 19.4544L20.7135 20.815L19.1405 20.6002C19.129 20.5986 19.1171 20.597 19.1051 20.5953C18.9807 20.5781 18.8281 20.557 18.6818 20.558C18.5433 20.559 18.4402 20.5695 18.3044 20.5966C18.1603 20.6253 17.9874 20.6866 17.834 20.741C17.8174 20.7469 17.801 20.7527 17.7849 20.7584C17.3418 20.9148 16.8657 21 16.3684 21C14.3688 21 12.6573 19.6057 12.1515 17.6812C12.1478 17.6651 12.1436 17.6491 12.1392 17.6333Z"
        fill="white"
        fillRule="evenodd"
    />
</svg>