 <svg
    fill="none"
    height="24"
    viewBox="0 0 24 24"
    width="24"
    xmlns="http://www.w3.org/2000/svg"
>
    <path
    className="path"
    clipRule="evenodd"
    d="M17 7C17 4.23858 14.7614 2 12 2C9.23858 2 7 4.23858 7 7V13C7 15.7614 9.23858 18 12 18C14.7614 18 17 15.7614 17 13V7ZM12 4C13.6569 4 15 5.34315 15 7V13C15 14.6569 13.6569 16 12 16C10.3431 16 9 14.6569 9 13V7C9 5.34315 10.3431 4 12 4ZM20 11C19.4477 11 19 11.4477 19 12V13C19 16.866 15.866 20 12 20C8.13401 20 5 16.866 5 13V12C5 11.4477 4.55229 11 4 11C3.44772 11 3 11.4477 3 12V13C3 17.9706 7.02944 22 12 22C16.9706 22 21 17.9706 21 13V12C21 11.4477 20.5523 11 20 11Z"
    fill="white"
    fillRule="evenodd"
    />
</svg>