<svg width="20" height="14" viewBox="0 0 20 14" fill="none" xmlns="http://www.w3.org/2000/svg">
<path fill-rule="evenodd" clip-rule="evenodd" d="M0 7C0 6.44772 0.447715 6 1 6H19C19.5523 6 20 6.44772 20 7C20 7.55228 19.5523 8 19 8H1C0.447715 8 0 7.55228 0 7Z" fill="white"/>
<path fill-rule="evenodd" clip-rule="evenodd" d="M0 1C0 0.447715 0.447715 0 1 0H19C19.5523 0 20 0.447715 20 1C20 1.55228 19.5523 2 19 2H1C0.447715 2 0 1.55228 0 1Z" fill="white"/>
<path fill-rule="evenodd" clip-rule="evenodd" d="M0 13C0 12.4477 0.447715 12 1 12H13C13.5523 12 14 12.4477 14 13C14 13.5523 13.5523 14 13 14H1C0.447715 14 0 13.5523 0 13Z" fill="white"/>
</svg>
