<svg width="24" height="24" viewBox="0 0 24 24" fill="none" xmlns="http://www.w3.org/2000/svg">
<g id="power-01">
<path id="Icon (Stroke)" fill-rule="evenodd" clip-rule="evenodd" d="M12 1C11.4477 1 11 1.44772 11 2V12C11 12.5523 11.4477 13 12 13C12.5523 13 13 12.5523 13 12V2C13 1.44772 12.5523 1 12 1ZM17.663 5.93278C17.2724 6.32324 17.2723 6.9564 17.6628 7.34699C18.7813 8.46592 19.543 9.89138 19.8515 11.4432C20.1599 12.9949 20.0014 14.6033 19.3958 16.065C18.7902 17.5266 17.7648 18.7759 16.4493 19.6549C15.1338 20.5338 13.5871 21.0029 12.005 21.0029C10.4229 21.0029 8.87625 20.5338 7.56071 19.6549C6.24517 18.7759 5.21979 17.5266 4.61421 16.065C4.00863 14.6033 3.85006 12.9949 4.15853 11.4432C4.467 9.89138 5.22866 8.46592 6.34722 7.34699C6.73768 6.9564 6.73758 6.32324 6.34699 5.93278C5.9564 5.54232 5.32324 5.54242 4.93278 5.93301C3.53458 7.33166 2.58249 9.1135 2.19691 11.0532C1.81132 12.9929 2.00954 15.0034 2.76652 16.8305C3.52349 18.6576 4.80522 20.2192 6.44964 21.3178C8.09406 22.4165 10.0273 23.0029 12.005 23.0029C13.9827 23.0029 15.9159 22.4165 17.5604 21.3178C19.2048 20.2192 20.4865 18.6576 21.2435 16.8305C22.0005 15.0034 22.1987 12.9929 21.8131 11.0532C21.4275 9.1135 20.4754 7.33166 19.0772 5.93301C18.6868 5.54242 18.0536 5.54232 17.663 5.93278Z" fill="white"/>
</g>
</svg>
